<svg width="214" height="214" viewBox="0 0 214 214" fill="none" xmlns="http://www.w3.org/2000/svg">
<path d="M187.25 0H26.75C11.9957 0 0 11.9957 0 26.75V147.125C0 161.879 11.9957 173.875 26.75 173.875H66.875V208.984C66.875 211.952 69.2992 214 71.8906 214C72.8938 214 73.9387 213.707 74.8582 212.997L127.062 173.875H187.25C202.004 173.875 214 161.879 214 147.125V26.75C214 11.9957 202.004 0 187.25 0ZM193.938 147.125C193.938 150.803 190.928 153.812 187.25 153.812H120.375L115.025 157.825L86.9375 178.891V153.812H26.75C23.0719 153.812 20.0625 150.803 20.0625 147.125V26.75C20.0625 23.0719 23.0719 20.0625 26.75 20.0625H187.25C190.928 20.0625 193.938 23.0719 193.938 26.75V147.125Z" fill="#BC4099"/>
</svg>
