<svg width="224" height="213" viewBox="0 0 224 213" fill="none" xmlns="http://www.w3.org/2000/svg">
<path d="M106.29 4.70631C108.078 -0.838187 115.922 -0.838172 117.71 4.70633L139.692 72.8666C140.493 75.3497 142.807 77.0307 145.416 77.025L217.033 76.8685C222.859 76.8557 225.283 84.3163 220.562 87.7302L162.531 129.699C160.417 131.228 159.533 133.948 160.345 136.427L182.624 204.491C184.437 210.028 178.09 214.639 173.385 211.204L115.537 168.982C113.43 167.444 110.57 167.444 108.463 168.982L50.6152 211.204C45.9096 214.639 39.5633 210.028 41.3756 204.491L63.6554 136.427C64.4671 133.948 63.5833 131.228 61.4692 129.699L3.43775 87.7302C-1.28282 84.3163 1.14128 76.8557 6.96697 76.8685L78.5841 77.025C81.1931 77.0307 83.5068 75.3497 84.3076 72.8666L106.29 4.70631Z" fill="#BC4099"/>
</svg>
